
<svg width="1440px" height="390px" viewBox="0 0 1440 390" version="1.1" xmlns="http://www.w3.org/2000/svg" xmlns:xlink="http://www.w3.org/1999/xlink">
    <!-- Generator: Sketch 48.1 (47250) - http://www.bohemiancoding.com/sketch -->
    <desc>Created with Sketch.</desc>
    <defs>
        <linearGradient x1="99.5129108%" y1="0%" x2="0%" y2="100%" id="linearGradient-1">
            <stop stop-color="#00D9FF" offset="0%"></stop>
            <stop stop-color="#208DFF" offset="100%"></stop>
        </linearGradient>
        <linearGradient x1="100%" y1="100%" x2="0%" y2="0%" id="linearGradient-2">
            <stop stop-color="#FFFFFF" stop-opacity="0.527802348" offset="0%"></stop>
            <stop stop-color="#FFFFFF" stop-opacity="0" offset="100%"></stop>
        </linearGradient>
        <linearGradient x1="100%" y1="0%" x2="0%" y2="100%" id="linearGradient-3">
            <stop stop-color="#C0E249" offset="0%"></stop>
            <stop stop-color="#48D57C" offset="100%"></stop>
        </linearGradient>
        <linearGradient x1="0%" y1="100%" x2="100%" y2="0%" id="linearGradient-4">
            <stop stop-color="#8147FC" offset="0%"></stop>
            <stop stop-color="#49A7FF" offset="100%"></stop>
        </linearGradient>
    </defs>
    <g id="Page-1" stroke="none" stroke-width="1" fill="none" fill-rule="evenodd">
        <g id="Voxeet-Login-Light" transform="translate(0.000000, -247.000000)">
            <g id="new-blocks" transform="translate(-88.000000, 247.000000)">
                <g id="blocks">
                    <g id="block-copy-5" transform="translate(195.000000, 195.000000) rotate(-90.000000) translate(-195.000000, -195.000000) translate(130.000000, 130.000000)">
                        <rect id="Mask" fill="url(#linearGradient-1)" x="0" y="0" width="130" height="130" rx="3.5"></rect>
                        <path d="M61.5,58 L130,58 L130,126.5 C130,128.432997 128.432997,130 126.5,130 L58,130 L58,61.5 C58,59.5670034 59.5670034,58 61.5,58 Z" id="Rectangle-3-Copy" fill="url(#linearGradient-2)" opacity="0.5" transform="translate(94.000000, 94.000000) rotate(-180.000000) translate(-94.000000, -94.000000) "></path>
                    </g>
                    <g id="block-copy-6" transform="translate(65.000000, 65.000000) rotate(-90.000000) translate(-65.000000, -65.000000) ">
                        <rect id="Mask" fill="url(#linearGradient-3)" x="0" y="0" width="130" height="130" rx="3.5"></rect>
                        <path d="M61.5,58 L130,58 L130,126.5 C130,128.432997 128.432997,130 126.5,130 L58,130 L58,61.5 C58,59.5670034 59.5670034,58 61.5,58 Z" id="Rectangle-3-Copy" fill="url(#linearGradient-2)" opacity="0.5" transform="translate(94.000000, 94.000000) rotate(-180.000000) translate(-94.000000, -94.000000) "></path>
                    </g>
                    <g id="block-copy" transform="translate(65.000000, 325.000000) rotate(-90.000000) translate(-65.000000, -325.000000) translate(0.000000, 260.000000)">
                        <rect id="Mask" fill="url(#linearGradient-4)" x="0" y="0" width="130" height="130" rx="3.5"></rect>
                        <path d="M61.5,58 L130,58 L130,126.5 C130,128.432997 128.432997,130 126.5,130 L58,130 L58,61.5 C58,59.5670034 59.5670034,58 61.5,58 Z" id="Rectangle-3-Copy" fill="url(#linearGradient-2)" opacity="0.5" transform="translate(94.000000, 94.000000) rotate(-180.000000) translate(-94.000000, -94.000000) "></path>
                    </g>
                </g>
                <g id="blocks-copy" transform="translate(1487.000000, 195.000000) rotate(-180.000000) translate(-1487.000000, -195.000000) translate(1357.000000, 0.000000)">
                    <g id="block-copy-5" transform="translate(195.000000, 195.000000) rotate(-90.000000) translate(-195.000000, -195.000000) translate(130.000000, 130.000000)">
                        <rect id="Mask" fill="url(#linearGradient-4)" x="0" y="0" width="130" height="130" rx="3.5"></rect>
                        <path d="M61.5,58 L130,58 L130,126.5 C130,128.432997 128.432997,130 126.5,130 L58,130 L58,61.5 C58,59.5670034 59.5670034,58 61.5,58 Z" id="Rectangle-3-Copy" fill="url(#linearGradient-2)" opacity="0.5" transform="translate(94.000000, 94.000000) rotate(-180.000000) translate(-94.000000, -94.000000) "></path>
                    </g>
                    <g id="block-copy-6" transform="translate(65.000000, 65.000000) rotate(-90.000000) translate(-65.000000, -65.000000) ">
                        <rect id="Mask" fill="url(#linearGradient-3)" x="0" y="0" width="130" height="130" rx="3.5"></rect>
                        <path d="M61.5,58 L130,58 L130,126.5 C130,128.432997 128.432997,130 126.5,130 L58,130 L58,61.5 C58,59.5670034 59.5670034,58 61.5,58 Z" id="Rectangle-3-Copy" fill="url(#linearGradient-2)" opacity="0.5" transform="translate(94.000000, 94.000000) rotate(-180.000000) translate(-94.000000, -94.000000) "></path>
                    </g>
                    <g id="block-copy" transform="translate(65.000000, 325.000000) rotate(-90.000000) translate(-65.000000, -325.000000) translate(0.000000, 260.000000)">
                        <rect id="Mask" fill="url(#linearGradient-1)" x="0" y="0" width="130" height="130" rx="3.5"></rect>
                        <path d="M61.5,58 L130,58 L130,126.5 C130,128.432997 128.432997,130 126.5,130 L58,130 L58,61.5 C58,59.5670034 59.5670034,58 61.5,58 Z" id="Rectangle-3-Copy" fill="url(#linearGradient-2)" opacity="0.5" transform="translate(94.000000, 94.000000) rotate(-180.000000) translate(-94.000000, -94.000000) "></path>
                    </g>
                </g>
            </g>
        </g>
    </g>
</svg>